<?xml version="1.0" standalone="no"?>
<!DOCTYPE svg PUBLIC "-//W3C//DTD SVG 20010904//EN"
 "http://www.w3.org/TR/2001/REC-SVG-20010904/DTD/svg10.dtd">
<svg version="1.0" xmlns="http://www.w3.org/2000/svg"
 width="1280.000000pt" height="640.000000pt" viewBox="0 0 1280.000000 640.000000"
 preserveAspectRatio="xMidYMid meet">
<metadata>
Created by potrace 1.15, written by Peter Selinger 2001-2017
</metadata>
<g transform="translate(0.000000,640.000000) scale(0.100000,-0.100000)"
fill="#000000" stroke="none">
<path d="M6489 5567 c-88 -30 -140 -67 -182 -131 -19 -29 -86 -99 -148 -157
-253 -233 -319 -312 -319 -387 0 -74 32 -190 80 -287 48 -97 100 -169 309
-426 112 -138 160 -214 214 -337 56 -126 94 -192 111 -192 35 0 55 80 36 150
-6 25 -45 113 -85 195 -81 167 -95 207 -95 281 0 69 16 112 58 157 31 31 42
37 79 37 40 0 49 -6 131 -84 49 -46 99 -90 113 -97 17 -10 60 -14 144 -14 135
0 170 -12 206 -68 17 -27 20 -44 16 -107 -5 -80 -31 -156 -106 -309 l-41 -85
28 -35 c42 -52 90 -66 161 -45 65 18 114 47 266 154 61 43 130 88 155 100 24
13 60 35 80 50 73 57 164 66 248 24 181 -90 94 -303 -160 -388 -24 -8 -97 -28
-163 -45 -154 -39 -223 -63 -271 -95 -50 -32 -74 -52 -74 -59 0 -3 44 -13 98
-24 155 -29 456 -22 575 13 45 14 -3 -114 -55 -146 -41 -26 -87 -22 -179 13
-116 45 -210 60 -374 59 -126 -1 -166 -5 -250 -26 -113 -29 -282 -108 -337
-159 -63 -57 -74 -166 -25 -239 46 -68 113 -62 303 25 299 137 613 194 844
153 54 -9 67 -16 79 -38 13 -23 14 -35 2 -85 -32 -144 -22 -198 35 -178 50 18
67 124 31 202 -9 21 -8 27 8 39 31 23 65 16 100 -19 44 -44 53 -93 31 -162
-21 -67 -21 -138 0 -155 21 -19 64 -2 83 32 14 25 14 31 -8 80 -33 75 -35 92
-15 112 39 40 106 -10 161 -120 41 -84 39 -102 -26 -209 -42 -71 -55 -135 -28
-152 6 -4 37 -8 67 -8 30 -1 78 -5 106 -9 46 -7 54 -6 73 13 12 12 21 34 21
50 0 22 12 40 53 76 90 82 105 121 67 183 -24 39 -25 65 -4 145 17 67 14 91
-17 130 -39 51 -88 22 -94 -56 -12 -143 -135 -169 -246 -53 -38 39 -49 76 -31
102 11 17 51 36 62 29 11 -7 51 12 62 29 11 16 10 74 -2 97 -16 28 -56 24 -77
-8 -10 -15 -39 -48 -64 -75 -40 -42 -51 -48 -87 -48 -35 0 -45 5 -66 33 -15
19 -26 44 -26 55 0 30 34 62 65 62 53 0 98 86 75 144 -17 46 -48 31 -102 -49
-83 -122 -140 -153 -188 -105 -40 40 -17 103 51 142 42 23 55 51 46 96 -5 26
-3 28 76 56 111 40 220 97 359 189 233 156 286 256 295 557 l6 165 33 37 c83
93 63 218 -45 275 -56 29 -123 30 -211 3 -106 -34 -136 -16 -215 130 -25 47
-64 102 -87 123 -37 34 -46 37 -97 37 -137 0 -300 -148 -414 -376 -20 -39 -75
-169 -122 -290 -48 -120 -100 -242 -116 -270 -39 -70 -117 -141 -163 -150 -39
-7 -123 -1 -134 10 -19 20 82 205 201 366 192 259 267 415 267 555 0 153 -79
295 -195 349 -73 35 -126 42 -178 23 -69 -25 -96 -28 -140 -16 -66 17 -100 50
-192 189 -95 143 -182 227 -264 255 -66 22 -173 19 -252 -8z"/>
<path d="M11160 5090 c-14 -4 -51 -21 -82 -38 -45 -24 -64 -29 -85 -23 -57 16
-78 -7 -99 -109 -3 -19 -16 -51 -27 -71 -18 -31 -19 -41 -9 -63 15 -34 52 -42
134 -28 114 20 126 18 175 -33 47 -50 93 -132 93 -167 0 -30 -26 -68 -47 -68
-9 0 -40 25 -69 56 -57 59 -75 63 -117 26 -45 -40 7 -89 106 -102 36 -4 75
-15 87 -23 49 -34 75 -100 59 -147 -16 -44 -45 -48 -83 -12 -43 41 -68 52
-115 52 -30 0 -44 -6 -55 -22 -31 -44 10 -72 147 -98 83 -17 94 -36 73 -132
-53 -237 -225 -523 -462 -768 -105 -110 -154 -179 -154 -222 0 -55 75 -129
145 -142 48 -9 101 17 188 91 123 106 216 242 287 420 55 137 78 235 91 378
13 141 21 167 62 201 29 24 37 26 116 23 82 -4 86 -3 97 20 17 34 -5 77 -45
86 -24 5 -40 -1 -81 -29 -29 -20 -63 -36 -76 -36 -51 0 -81 69 -53 122 13 25
75 52 154 68 75 15 95 26 95 50 0 50 -103 80 -137 40 -53 -61 -64 -70 -86 -70
-28 0 -53 24 -68 68 -17 48 10 95 74 127 28 14 59 25 68 25 29 0 68 22 74 41
11 34 -36 79 -84 79 -21 0 -46 -26 -56 -58 -8 -29 -45 -47 -78 -38 -52 13 -88
177 -53 244 13 26 36 42 80 56 10 4 38 -1 60 -9 32 -12 48 -14 69 -6 36 14 42
32 23 70 -20 39 -50 58 -101 66 -79 12 -89 17 -136 66 -48 50 -56 53 -99 39z"/>
<path d="M10073 4890 c-18 -10 -40 -31 -49 -45 -15 -23 -15 -32 -4 -80 17 -72
9 -144 -20 -167 -19 -15 -34 -17 -99 -12 -69 5 -79 4 -110 -17 -42 -29 -81
-100 -81 -148 0 -48 33 -108 103 -186 73 -82 131 -126 347 -265 195 -125 252
-174 276 -237 18 -46 14 -79 -13 -112 l-18 -21 -55 37 c-30 20 -127 107 -215
193 -239 235 -331 285 -510 278 -85 -3 -97 -6 -137 -33 -26 -19 -55 -52 -73
-85 -25 -47 -30 -67 -31 -133 -1 -42 -7 -83 -13 -91 -17 -20 -78 -43 -174 -65
-103 -24 -146 -45 -209 -100 -58 -52 -83 -113 -82 -198 2 -85 35 -150 127
-250 51 -55 91 -111 122 -172 89 -172 169 -216 349 -193 115 15 198 41 411
130 260 107 313 123 437 129 114 6 135 15 123 53 -6 19 -14 20 -118 20 -62 0
-157 -7 -212 -14 -198 -28 -240 -29 -279 -11 -46 22 -76 64 -83 115 -5 32 -1
43 20 64 13 13 42 28 63 32 103 18 154 77 154 176 0 63 18 94 66 114 81 34
155 11 250 -77 86 -80 122 -101 179 -101 50 -1 63 6 76 39 10 27 -31 164 -109
359 -66 164 -76 207 -62 264 21 89 98 133 168 96 68 -36 107 -103 146 -256 24
-92 27 -115 21 -195 -7 -91 4 -167 26 -181 44 -27 132 229 145 421 20 287
-104 600 -309 780 -94 82 -153 100 -234 69 -54 -21 -87 -12 -115 30 -13 19
-35 42 -49 50 -37 22 -107 20 -146 -4z"/>
<path d="M1268 4771 c-73 -29 -116 -59 -147 -105 -39 -56 -53 -108 -39 -147
19 -55 -3 -99 -97 -190 -111 -108 -124 -140 -100 -238 61 -250 266 -468 578
-616 131 -62 302 -118 349 -113 25 2 34 8 36 25 3 17 -25 50 -115 141 l-118
118 -58 131 c-31 72 -61 150 -65 174 -18 96 28 179 98 179 118 0 201 -80 276
-265 18 -44 42 -97 53 -119 11 -21 37 -90 57 -153 27 -85 45 -123 69 -149 35
-37 80 -48 71 -16 -29 98 -41 200 -41 352 1 160 2 169 39 305 62 227 52 343
-40 468 -61 84 -77 89 -234 82 -87 -4 -145 -3 -163 4 -15 6 -52 34 -82 62 -31
29 -75 58 -104 70 -65 24 -160 24 -223 0z"/>
<path d="M3305 4561 c-58 -10 -91 -31 -176 -110 -116 -107 -135 -109 -214 -25
-109 115 -282 77 -460 -101 -76 -75 -99 -106 -138 -185 -26 -52 -59 -140 -74
-195 -23 -89 -26 -119 -26 -265 0 -224 37 -441 77 -448 17 -4 18 3 11 96 -7
96 -6 103 30 218 43 137 62 179 107 230 54 61 131 83 143 42 12 -41 56 -96 86
-108 36 -16 68 2 104 60 31 49 75 72 135 72 94 0 173 -69 156 -137 -9 -36 -31
-55 -221 -195 -187 -137 -273 -222 -315 -312 -35 -74 -37 -88 -10 -88 32 0
106 42 210 119 52 39 113 80 135 91 86 43 255 103 424 151 256 72 355 107 408
142 126 85 176 244 114 364 -11 22 -39 57 -63 78 l-43 39 3 76 c12 258 -99
403 -305 399 -32 -1 -76 -5 -98 -8z"/>
<path d="M5255 4462 c-217 -75 -364 -280 -391 -544 -11 -109 -71 -171 -254
-263 -110 -55 -195 -111 -231 -152 -73 -84 -149 -288 -149 -403 0 -64 25 -172
54 -236 30 -65 104 -147 166 -181 65 -38 91 -64 198 -198 53 -66 121 -144 151
-174 62 -61 154 -109 227 -117 75 -9 276 23 393 62 242 80 507 293 769 618
105 131 104 126 35 126 -73 0 -122 -22 -232 -104 -116 -86 -150 -105 -203
-112 -48 -7 -109 8 -127 30 -6 8 -15 55 -20 107 -7 78 -12 96 -31 111 -27 22
-73 23 -153 2 -106 -27 -195 4 -251 89 -65 101 -37 212 66 265 65 34 157 39
287 17 160 -27 182 -10 134 97 -37 83 -38 156 -2 194 42 45 78 58 159 58 128
-1 244 -63 292 -158 48 -95 140 -176 199 -176 119 0 49 291 -132 545 -76 106
-217 251 -314 323 -96 72 -249 149 -341 172 -98 25 -230 26 -299 2z"/>
<path d="M11981 4190 c-263 -71 -512 -337 -634 -677 -15 -40 -32 -82 -39 -93
-11 -19 -10 -24 11 -41 32 -26 84 -22 89 6 9 50 153 161 279 215 106 45 239
80 302 80 74 0 116 -25 132 -78 35 -117 -67 -189 -436 -306 -110 -35 -225 -71
-256 -80 -55 -15 -89 -40 -89 -66 0 -13 24 -12 185 10 183 25 386 6 558 -51
180 -60 349 -48 469 31 97 64 125 133 93 220 -39 103 -29 136 54 189 68 44 95
98 95 186 -1 83 -24 143 -80 204 -61 68 -96 81 -222 81 -125 0 -132 4 -167 93
-27 69 -66 88 -184 93 -64 3 -105 -1 -160 -16z"/>
<path d="M900 3550 c-11 -11 -20 -24 -20 -30 0 -5 20 -32 45 -60 25 -28 45
-57 45 -65 0 -22 -41 -45 -81 -45 -48 0 -91 43 -121 123 -33 84 -81 101 -108
38 -16 -39 -2 -63 52 -93 56 -31 62 -60 16 -88 -71 -43 -144 -12 -191 82 -16
33 -37 60 -49 64 -24 7 -71 -24 -76 -50 -5 -22 25 -56 49 -56 28 0 73 -44 66
-64 -9 -22 -84 -54 -147 -62 -102 -13 -183 47 -157 116 14 37 -4 80 -33 80
-29 0 -77 -27 -90 -49 -5 -11 -10 -41 -10 -66 0 -38 -5 -51 -26 -68 -51 -43
-64 -57 -64 -71 0 -8 20 -41 45 -74 34 -45 45 -69 45 -95 0 -20 5 -39 10 -42
6 -4 50 -13 98 -21 169 -29 160 -29 174 1 10 23 9 35 -6 74 -10 25 -20 62 -23
82 -4 31 0 39 33 69 91 79 224 107 224 46 0 -13 -18 -37 -46 -62 -42 -36 -46
-42 -35 -62 15 -29 47 -45 72 -37 27 9 49 62 49 118 0 45 18 70 67 96 35 18
97 14 117 -8 16 -17 15 -20 -19 -54 -29 -29 -35 -42 -35 -76 0 -45 24 -67 65
-57 27 7 33 19 45 105 12 83 25 94 100 86 98 -12 263 -52 365 -90 136 -50 354
-160 466 -236 98 -66 205 -119 239 -119 32 0 95 36 114 65 10 15 20 42 23 62
6 33 2 39 -59 96 -187 178 -570 307 -912 307 -168 0 -216 30 -216 133 0 29 -5
58 -12 65 -19 19 -66 14 -88 -8z"/>
<path d="M3365 3409 c-192 -22 -464 -157 -712 -354 -46 -36 -83 -69 -83 -75 0
-13 65 -23 109 -16 21 3 85 26 142 51 114 49 202 60 233 30 8 -8 19 -15 25
-15 14 0 17 -37 8 -109 -12 -90 3 -103 113 -108 96 -4 131 -19 154 -67 43 -91
-6 -221 -92 -246 -39 -11 -86 -1 -230 51 -58 20 -64 21 -79 6 -13 -13 -14 -22
-4 -61 20 -81 15 -114 -24 -153 -35 -35 -36 -36 -108 -31 -127 8 -206 67 -252
188 -33 87 -99 164 -137 158 -80 -11 -72 -217 18 -420 95 -212 218 -368 372
-469 172 -113 315 -131 470 -59 87 40 177 132 225 229 20 40 37 82 37 92 0 23
42 72 84 98 18 11 87 36 155 56 170 49 212 69 269 129 101 107 142 204 142
337 0 113 -24 170 -114 268 -50 55 -88 109 -121 173 -96 187 -157 260 -250
296 -31 12 -197 33 -250 31 -16 -1 -61 -5 -100 -10z"/>
<path d="M11450 3043 c-25 -2 -94 -10 -154 -19 -105 -15 -154 -29 -142 -41 3
-4 66 -7 139 -8 157 -3 237 -22 369 -92 143 -76 204 -151 146 -181 -18 -9
-113 -32 -134 -32 -2 0 -4 -14 -4 -30 0 -24 14 -46 63 -98 78 -83 105 -143 87
-196 -15 -46 -44 -66 -95 -66 -64 0 -112 36 -188 135 -143 191 -271 312 -397
375 -88 44 -100 46 -100 16 0 -18 16 -43 51 -79 28 -28 80 -95 116 -147 113
-166 180 -321 282 -655 55 -181 140 -283 275 -328 115 -39 238 -3 278 81 21
44 56 49 148 23 129 -38 227 -15 304 70 130 144 76 353 -127 491 l-58 40 46
29 c83 53 135 127 135 192 0 100 -152 292 -299 377 -143 83 -284 122 -496 140
-125 10 -152 10 -245 3z"/>
<path d="M1035 2970 c-171 -15 -426 -94 -532 -166 -92 -63 -148 -163 -186
-332 -22 -96 -25 -104 -65 -137 -59 -51 -71 -101 -40 -163 34 -68 78 -87 196
-87 91 0 95 -1 116 -28 12 -15 35 -67 50 -115 38 -114 73 -152 142 -152 l49 0
239 220 c175 161 252 239 284 288 89 135 173 202 252 202 37 0 100 -23 100
-36 0 -3 -13 -24 -29 -47 -32 -45 -122 -135 -269 -266 -106 -96 -182 -187
-214 -257 -31 -71 -31 -200 1 -266 46 -95 139 -155 223 -144 114 15 166 -28
238 -195 85 -198 161 -267 306 -277 91 -6 171 17 222 62 48 43 155 112 257
164 98 51 189 121 210 163 21 40 21 174 0 253 -20 77 -65 178 -133 301 -95
172 -141 279 -168 397 -40 169 -64 201 -95 125 -19 -46 -13 -111 21 -228 44
-148 49 -220 20 -287 -25 -59 -68 -92 -119 -92 -37 0 -56 17 -123 112 -58 83
-81 98 -154 104 -66 5 -130 31 -159 64 -49 55 -11 164 110 317 l63 80 -16 32
c-38 80 -123 79 -328 -2 -77 -31 -153 -59 -169 -63 -17 -4 -48 -15 -70 -25
-57 -26 -140 -24 -190 4 -46 26 -85 79 -85 116 0 57 67 126 151 157 28 10 116
21 239 29 196 14 249 23 285 49 19 14 17 16 -30 36 -169 72 -397 107 -600 90z"/>
<path d="M10455 2954 c-5 -2 -55 -10 -110 -18 -265 -39 -508 -169 -660 -353
-85 -103 -100 -141 -100 -248 0 -77 4 -98 27 -148 31 -65 114 -158 173 -192
22 -13 80 -38 129 -56 123 -44 159 -81 176 -178 16 -98 74 -213 145 -289 44
-48 77 -72 139 -102 194 -93 369 -77 507 46 66 60 96 75 229 119 141 46 171
68 216 157 62 122 69 295 19 445 -55 164 -171 351 -330 534 -73 84 -80 89 -93
72 -24 -31 -9 -102 46 -220 69 -147 68 -177 -2 -231 -40 -30 -72 -28 -108 9
-28 27 -34 29 -54 18 -27 -14 -41 -50 -49 -129 -13 -114 -45 -158 -127 -181
-75 -20 -157 29 -193 115 -26 61 -13 119 46 206 35 50 49 81 47 99 -3 29 -7
29 -88 6 -135 -39 -225 26 -199 145 22 102 129 194 272 233 102 27 132 61 89
100 -28 26 -121 52 -147 41z"/>
<path d="M6307 2817 c-25 -18 -81 -73 -124 -122 -112 -130 -212 -227 -260
-256 -23 -13 -81 -50 -129 -83 -47 -32 -192 -115 -320 -185 -296 -160 -368
-210 -422 -291 -51 -76 -72 -143 -72 -231 0 -123 59 -229 158 -286 58 -33 72
-49 72 -86 0 -50 41 -200 72 -262 47 -93 90 -140 163 -176 62 -30 69 -32 153
-27 98 6 213 42 265 82 17 14 66 76 107 138 86 129 120 156 173 139 19 -6 46
-25 62 -41 36 -38 84 -54 163 -53 126 1 255 95 369 270 63 97 103 191 135 320
32 129 32 382 -1 543 -37 187 -149 494 -193 533 -45 39 -50 6 -14 -110 36
-116 35 -116 25 -247 -19 -247 -56 -357 -143 -424 -44 -34 -68 -28 -104 22
-82 114 -182 114 -214 1 -16 -57 -54 -104 -102 -126 -92 -42 -213 -11 -250 64
-25 53 -15 95 38 154 357 399 447 539 472 723 6 45 5 50 -13 50 -11 0 -40 -15
-66 -33z"/>
<path d="M7260 2723 c-35 -13 -50 -35 -39 -57 16 -29 35 -44 190 -147 120 -80
142 -98 187 -162 28 -40 78 -109 111 -155 99 -137 124 -236 78 -317 -17 -29
-33 -44 -62 -53 -51 -17 -130 -10 -183 17 -60 30 -144 122 -219 236 -36 55
-78 114 -92 130 -14 17 -55 84 -91 150 -36 66 -86 141 -111 167 -38 40 -51 48
-82 48 -20 0 -37 -4 -37 -9 0 -5 15 -42 34 -83 47 -104 93 -245 117 -363 22
-107 26 -183 20 -445 -5 -259 25 -355 153 -485 105 -107 138 -113 304 -61 59
19 122 37 141 40 46 8 107 -10 161 -48 121 -86 247 -96 386 -30 153 72 249
256 195 374 -39 86 -26 133 77 283 64 94 89 163 77 219 -10 46 -69 162 -120
233 -57 80 -183 199 -275 259 -194 128 -461 218 -745 251 -138 16 -151 17
-175 8z"/>
</g>
</svg>
