<?xml version="1.0" standalone="no"?>
<!DOCTYPE svg PUBLIC "-//W3C//DTD SVG 20010904//EN"
 "http://www.w3.org/TR/2001/REC-SVG-20010904/DTD/svg10.dtd">
<svg version="1.0" xmlns="http://www.w3.org/2000/svg"
 width="1280.000000pt" height="653.000000pt" viewBox="0 0 1280.000000 653.000000"
 preserveAspectRatio="xMidYMid meet">
<metadata>
Created by potrace 1.15, written by Peter Selinger 2001-2017
</metadata>
<g transform="translate(0.000000,653.000000) scale(0.100000,-0.100000)"
fill="#ff8fa0" stroke="none">
<path d="M4980 6064 c-14 -2 -63 -9 -110 -15 -346 -47 -713 -229 -968 -481
-177 -175 -309 -380 -387 -601 -26 -72 -32 -81 -79 -111 -28 -18 -73 -57 -100
-87 -27 -30 -55 -53 -62 -51 -9 2 -16 -11 -20 -38 -4 -22 -10 -40 -14 -40 -5
0 -17 16 -29 35 -11 19 -27 35 -36 35 -11 0 -8 13 17 60 26 51 33 78 41 171 5
60 8 112 5 114 -2 2 -21 0 -41 -6 -59 -16 -129 -79 -167 -150 -30 -56 -34 -73
-34 -141 -1 -43 -6 -79 -11 -82 -6 -2 -9 25 -7 73 5 93 -15 176 -68 286 -46
97 -83 140 -238 278 l-119 106 -17 -37 c-68 -150 -60 -333 20 -500 48 -100
150 -207 244 -256 39 -21 70 -38 70 -40 0 -2 -42 -1 -94 2 -58 3 -107 0 -127
-7 -29 -10 -35 -9 -56 11 -12 12 -24 20 -26 17 -2 -2 -9 -17 -15 -33 l-13 -29
-67 64 c-41 39 -90 75 -127 91 -33 15 -95 43 -137 62 l-78 35 -2 -32 c-3 -57
4 -120 18 -166 7 -25 12 -47 10 -49 -3 -2 -16 4 -30 13 -33 22 -104 25 -116 5
-5 -7 -22 -21 -38 -29 -62 -33 -138 -91 -153 -118 -15 -26 -32 -202 -33 -358
l-1 -49 45 -17 c25 -10 63 -22 85 -28 22 -6 48 -16 58 -23 14 -11 -5 -13 -115
-15 -165 -2 -268 -27 -453 -108 -71 -31 -197 -85 -280 -118 -82 -34 -152 -63
-154 -64 -2 -1 8 -18 23 -38 116 -151 315 -276 530 -330 l89 -23 -109 -25
c-60 -14 -126 -29 -146 -32 -21 -4 -38 -10 -38 -14 0 -20 63 -102 114 -148 63
-58 151 -105 241 -128 115 -30 297 -15 386 30 16 9 34 13 39 10 4 -3 7 -38 5
-77 -4 -72 -4 -73 -38 -84 -76 -26 -127 -61 -214 -147 -51 -50 -93 -95 -93
-99 0 -5 16 -16 36 -24 151 -63 330 -21 448 107 31 33 56 64 56 69 0 5 7 7 15
3 12 -4 0 -21 -48 -72 -139 -143 -220 -398 -197 -614 6 -51 18 -159 28 -240
l17 -148 70 35 c184 93 318 266 376 482 43 159 25 375 -42 506 -25 49 -15 65
15 23 41 -59 120 -126 178 -153 63 -29 63 -27 42 -101 -7 -24 -7 -24 57 -18
35 3 74 9 87 13 16 4 22 2 22 -8 0 -21 39 -68 63 -77 11 -4 25 -23 32 -42 10
-30 8 -40 -17 -92 -16 -32 -26 -62 -23 -67 9 -15 64 -11 120 8 46 16 53 16 78
2 20 -11 25 -20 20 -35 -3 -11 -6 -58 -6 -105 1 -133 49 -252 137 -344 44 -45
133 -103 143 -93 12 13 43 236 43 314 0 87 -31 207 -69 270 l-20 31 47 -29
c60 -37 132 -51 194 -37 26 5 51 14 54 20 9 14 -111 134 -154 154 l-33 15 39
43 c22 24 43 53 46 64 4 12 16 24 28 28 22 7 98 72 98 84 0 4 -27 13 -61 20
-33 7 -63 19 -66 26 -2 7 7 29 21 51 61 94 74 272 27 377 -12 27 -19 51 -16
54 2 3 7 -4 11 -14 3 -10 22 -53 42 -94 29 -62 54 -94 146 -185 120 -120 176
-156 326 -210 l85 -30 1 -40 c0 -35 -6 -47 -49 -92 l-49 -51 23 -13 c13 -6 54
-14 91 -17 56 -4 70 -8 83 -28 14 -21 12 -28 -15 -85 -16 -35 -35 -88 -41
-118 -16 -78 -6 -213 21 -282 21 -54 85 -149 105 -156 15 -4 150 243 170 310
12 43 16 86 13 170 l-3 112 30 -40 c42 -54 101 -93 157 -104 38 -7 71 -28 185
-118 76 -60 235 -186 353 -279 279 -219 460 -375 591 -510 164 -170 178 -191
408 -612 l73 -134 135 249 c74 136 160 282 190 323 71 95 292 316 448 446 66
55 239 194 385 309 146 115 320 253 387 307 67 54 123 98 125 98 2 0 2 -38 0
-85 l-3 -84 88 29 c48 16 151 47 228 70 77 22 176 58 220 79 75 36 202 127
253 183 20 22 31 25 72 23 62 -3 70 -9 70 -48 0 -18 11 -62 23 -99 l23 -67
-44 -57 c-51 -64 -50 -67 38 -85 145 -30 334 40 429 161 23 29 42 44 54 42 13
-3 17 3 17 25 0 54 29 64 44 15 4 -12 16 -27 26 -32 18 -9 17 -13 -12 -68 -25
-50 -31 -77 -38 -168 -5 -59 -7 -110 -5 -113 11 -10 103 36 143 73 49 45 102
143 103 191 0 17 9 -8 18 -55 21 -99 60 -194 107 -266 39 -58 299 -308 312
-300 5 3 20 34 33 68 21 55 24 80 24 193 -1 115 -4 138 -27 197 -57 151 -156
268 -279 333 -39 20 -69 39 -67 41 2 2 32 -2 66 -8 47 -9 77 -9 128 1 63 11
68 11 89 -9 l22 -21 13 33 c8 18 14 34 16 36 1 2 28 -24 60 -58 58 -60 85 -77
268 -159 37 -17 72 -28 77 -25 14 8 11 104 -6 168 -9 33 -13 61 -11 63 3 3 15
-2 28 -11 33 -23 100 -21 123 4 10 11 23 20 30 20 6 0 23 9 36 21 13 11 40 30
59 42 59 38 79 78 80 160 0 40 5 121 11 181 11 109 11 109 -12 127 -13 10 -48
23 -78 30 -30 6 -67 19 -83 29 -29 17 -28 18 129 23 196 6 226 14 548 152 132
56 257 108 278 114 20 7 37 17 37 22 0 5 -35 45 -77 90 -128 134 -280 222
-470 273 -47 12 -80 25 -72 28 8 3 73 18 146 33 l132 29 -22 40 c-66 120 -227
224 -391 252 -125 22 -218 9 -357 -50 -22 -10 -30 24 -16 70 8 27 8 40 -1 55
-16 25 -15 29 6 29 27 0 141 57 176 88 17 15 62 60 100 100 l69 72 -37 15
c-156 66 -340 24 -455 -101 -28 -31 -51 -60 -51 -65 0 -5 -7 -9 -15 -9 -8 0
-15 2 -15 5 0 3 27 32 59 64 70 70 137 197 176 335 30 108 34 232 11 411 -8
66 -18 150 -22 188 -3 37 -9 67 -11 67 -20 0 -142 -70 -189 -109 -263 -211
-359 -625 -213 -913 16 -31 17 -38 5 -38 -8 0 -24 16 -36 35 -30 49 -103 110
-167 141 -54 25 -55 26 -48 60 3 20 9 43 12 51 6 14 -2 15 -58 10 -35 -4 -73
-9 -84 -12 -16 -4 -25 3 -43 35 -13 24 -32 42 -47 46 -17 4 -25 13 -25 28 0
11 -4 27 -9 35 -7 10 0 34 21 74 24 48 27 62 16 69 -16 11 -91 1 -136 -18 -30
-12 -36 -12 -57 4 -17 12 -22 23 -18 37 14 45 5 191 -16 256 -37 117 -124 225
-219 273 -19 10 -35 16 -37 14 -10 -10 -45 -259 -45 -322 0 -81 32 -203 71
-265 l21 -35 -24 16 c-17 11 -35 51 -69 149 -52 155 -113 279 -197 404 -247
367 -644 622 -1113 717 -98 20 -144 23 -329 23 -183 0 -232 -4 -326 -23 -329
-66 -581 -199 -812 -428 l-123 -121 -117 117 c-228 227 -490 365 -818 430
-104 21 -414 36 -484 24z m-2130 -1690 c0 -8 -4 -12 -10 -9 -5 3 -10 10 -10
16 0 5 5 9 10 9 6 0 10 -7 10 -16z m-334 -84 c16 0 30 -18 59 -77 27 -55 57
-97 103 -142 67 -66 68 -73 15 -87 -12 -3 -29 -17 -38 -30 -23 -35 -32 -30
-37 21 -7 59 -47 139 -114 225 -59 77 -69 106 -31 96 12 -3 31 -6 43 -6z m452
-19 c21 -11 21 -13 6 -36 -9 -13 -22 -46 -29 -72 -8 -28 -14 -38 -14 -25 -1
19 -23 88 -46 144 -6 14 -2 15 27 9 18 -4 43 -13 56 -20z m311 -8 c13 -28 13
-28 -8 -9 -22 20 -27 36 -13 36 5 0 14 -12 21 -27z m6810 -225 c-38 -35 -37
-54 6 -113 l35 -49 -28 -23 c-32 -26 -45 -28 -61 -9 -13 15 -89 39 -111 34 -9
-2 -16 6 -18 19 -2 11 -19 37 -38 57 l-34 35 48 64 c27 35 57 84 67 108 l18
44 73 -70 72 -70 -29 -27z m-6919 126 c0 -2 -11 -4 -25 -4 -18 0 -25 5 -25 20
0 20 1 20 25 4 14 -9 25 -18 25 -20z m6253 -91 c4 -3 3 -11 -2 -17 -5 -6 -14
-27 -20 -47 -6 -20 -21 -45 -33 -55 -21 -19 -21 -19 -15 6 3 14 9 46 12 73 6
40 11 47 29 47 13 0 26 -3 29 -7z m-7356 -139 c-3 -3 -12 -4 -19 -1 -8 3 -5 6
6 6 11 1 17 -2 13 -5z m310 -73 c32 -16 84 -34 115 -41 51 -12 56 -15 49 -34
-5 -12 -6 -27 -4 -33 7 -21 -5 -15 -59 28 -59 46 -123 81 -185 99 -24 7 -43
14 -43 16 0 1 3 9 6 18 5 14 10 13 34 -4 16 -11 55 -33 87 -49z m8368 -101
c25 -17 73 -41 107 -54 l61 -23 -81 -12 c-224 -33 -421 -126 -564 -265 -31
-31 -60 -56 -63 -56 -18 0 2 43 45 95 28 33 64 89 82 126 27 57 34 65 54 61
16 -3 36 6 61 26 21 16 58 34 83 39 35 7 48 15 58 36 7 15 26 34 41 42 16 8
31 25 34 37 l7 23 15 -22 c9 -13 36 -36 60 -53z m-8195 -282 c-28 -35 -64 -91
-81 -125 -24 -51 -33 -60 -50 -56 -13 4 -33 -5 -60 -27 -22 -17 -61 -37 -87
-43 -35 -9 -50 -19 -60 -40 -8 -15 -24 -32 -37 -37 -13 -5 -26 -18 -30 -29 -9
-28 -16 -26 -51 10 -32 34 -106 75 -169 94 l-40 13 50 6 c234 33 436 124 584
262 60 57 77 68 79 54 2 -11 -19 -46 -48 -82z m7780 -339 c48 -36 114 -72 197
-105 16 -6 20 -13 14 -23 -7 -11 -14 -10 -39 8 -52 36 -155 81 -205 87 -43 6
-47 9 -41 28 4 11 7 27 7 34 0 19 8 15 67 -29z m-7561 -60 c16 -12 49 -24 74
-26 36 -4 47 -10 51 -28 3 -12 21 -37 40 -55 l34 -33 -46 -56 c-25 -31 -56
-79 -69 -107 l-23 -51 -71 69 -71 70 26 27 c38 40 35 59 -26 143 -10 14 -8 21
12 43 29 30 33 31 69 4z m692 -97 c-6 -12 -14 -45 -19 -74 -7 -49 -10 -53 -35
-56 -26 -3 -28 -1 -22 20 16 51 37 94 57 115 25 27 34 24 19 -5z m6719 -32 c0
-37 60 -155 114 -227 26 -35 46 -71 44 -81 -3 -15 -9 -17 -43 -10 -38 8 -42
12 -70 76 -21 49 -48 87 -101 141 l-72 73 34 14 c18 8 38 14 44 14 5 0 10 6
10 13 0 7 5 18 12 25 15 15 28 -2 28 -38z m-1282 -56 c43 -13 81 -15 159 -11
57 2 103 2 103 -3 0 -4 -18 -14 -39 -22 -32 -13 -68 -15 -185 -11 l-145 6 22
28 c12 15 24 28 25 28 2 1 29 -6 60 -15z m281 -65 c1 -13 7 -26 11 -29 14 -9
15 -34 1 -67 -14 -34 -31 -44 -31 -18 0 8 -4 15 -9 15 -5 0 -12 9 -16 20 -3
10 -22 29 -41 41 -40 24 -36 32 21 53 50 18 59 16 64 -15z m724 -162 l16 -37
-27 6 c-26 5 -82 25 -82 28 0 1 9 19 20 41 11 21 23 55 27 74 l6 36 12 -55 c6
-30 19 -72 28 -93z m-223 89 c0 -24 -16 -27 -35 -6 -18 19 -17 20 8 20 17 0
27 -5 27 -14z m-196 -32 c5 -14 4 -15 -9 -4 -17 14 -19 20 -6 20 5 0 12 -7 15
-16z m-144 -54 c-20 -37 -23 -159 -6 -220 15 -58 14 -64 -20 -74 -19 -6 -21
-1 -32 85 -7 56 -20 110 -34 138 l-23 46 60 31 c62 32 75 31 55 -6z m198 -3
c6 -7 7 -18 3 -25 -5 -9 -11 -5 -19 13 -12 26 -2 34 16 12z m426 -112 c3 -9 0
-15 -9 -15 -9 0 -12 6 -9 15 4 8 7 15 9 15 2 0 5 -7 9 -15z m-145 -322 c0 -10
-4 -27 -9 -38 -7 -16 -9 -13 -9 18 -1 20 4 37 9 37 6 0 10 -8 9 -17z"/>
<path d="M9166 2775 c-9 -26 -7 -32 5 -12 6 10 9 21 6 23 -2 3 -7 -2 -11 -11z"/>
</g>
</svg>
