<?xml version="1.0" standalone="no"?>
<!DOCTYPE svg PUBLIC "-//W3C//DTD SVG 20010904//EN"
 "http://www.w3.org/TR/2001/REC-SVG-20010904/DTD/svg10.dtd">
<svg version="1.0" xmlns="http://www.w3.org/2000/svg"
 width="1280.000000pt" height="322.000000pt" viewBox="0 0 1280.000000 322.000000"
 preserveAspectRatio="xMidYMid meet">
<metadata>
Created by potrace 1.15, written by Peter Selinger 2001-2017
</metadata>
<g transform="translate(0.000000,322.000000) scale(0.100000,-0.100000)"
fill="#ff8fa0" stroke="none">
<path d="M1910 3010 c-14 -11 -33 -20 -42 -20 -29 0 -93 -65 -126 -127 -17
-32 -42 -94 -57 -138 -14 -44 -28 -87 -31 -95 -3 -8 -17 23 -30 70 -49 166
-122 264 -192 258 -51 -4 -76 -55 -80 -164 l-4 -82 -102 104 c-103 105 -124
117 -159 90 -37 -28 -58 -180 -38 -269 l9 -38 -31 21 c-53 35 -151 80 -175 80
-26 0 -57 -26 -66 -56 -15 -50 30 -186 94 -280 16 -25 30 -47 30 -49 0 -2 -20
4 -44 15 -85 36 -217 50 -273 29 -40 -15 -73 -49 -73 -75 0 -13 21 -46 51 -78
l51 -56 -40 0 c-47 0 -118 -23 -145 -48 -26 -23 -49 -82 -42 -109 12 -51 105
-119 243 -179 l77 -34 -65 0 c-169 0 -367 -85 -368 -157 0 -50 77 -110 170
-133 l47 -12 -48 -38 c-65 -51 -97 -116 -81 -164 14 -45 36 -63 91 -75 52 -12
192 0 279 24 30 8 55 13 57 12 1 -2 -20 -20 -48 -42 -76 -58 -156 -152 -194
-228 -42 -84 -43 -99 -9 -126 34 -26 83 -27 164 -2 33 11 60 16 58 13 -2 -4
-18 -37 -37 -74 -38 -76 -51 -149 -30 -174 34 -41 199 31 315 138 43 40 74 64
70 53 -25 -60 -46 -142 -52 -198 -7 -74 14 -163 46 -192 11 -10 20 -15 20 -11
0 4 9 1 21 -7 45 -32 125 22 200 136 l38 58 5 -33 c3 -18 7 -51 10 -73 16
-119 70 -208 134 -220 28 -6 37 -2 61 24 17 18 40 63 54 104 l24 72 26 -51
c56 -110 110 -150 178 -135 63 14 88 68 96 207 5 80 -8 222 -24 272 -2 10 21
-30 52 -88 75 -138 155 -244 213 -281 55 -35 59 -35 96 -6 28 22 30 29 34 108
2 54 -1 107 -11 149 -9 36 -15 66 -14 66 1 1 31 -16 67 -37 115 -70 208 -87
256 -45 l28 23 -17 44 c-17 43 -70 119 -156 219 l-44 51 65 -35 c102 -57 197
-86 276 -86 63 0 70 2 82 25 12 23 11 32 -7 75 l-21 50 38 0 c50 0 86 14 100
39 24 45 -93 209 -183 258 l-32 18 105 6 c62 4 125 15 155 26 47 17 50 21 52
56 3 44 -23 78 -96 128 -28 19 -51 37 -51 41 0 3 17 9 38 13 21 3 62 19 90 36
44 25 52 34 52 58 0 24 -9 35 -47 59 -27 17 -67 36 -90 44 -24 7 -43 15 -43
18 0 3 15 14 33 26 18 12 40 36 50 55 36 67 -13 116 -125 127 l-59 5 49 51
c27 28 55 61 61 73 14 27 14 83 1 83 -5 0 -10 11 -10 24 0 42 -43 61 -140 60
-95 0 -175 -22 -294 -81 l-69 -35 27 34 c79 96 123 161 159 236 33 68 41 96
44 155 5 89 -9 112 -65 110 -20 -1 -53 -9 -73 -17 l-37 -15 5 62 c6 76 -7 96
-64 104 -83 11 -209 -83 -301 -223 -76 -115 -74 -113 -67 -89 15 45 35 194 35
256 0 69 -19 149 -51 212 -16 31 -24 37 -52 37 -17 0 -43 -9 -57 -20z m0 -857
c-46 -147 -94 -245 -115 -237 -8 4 -15 9 -15 13 0 3 32 71 71 151 39 80 75
155 80 168 5 12 10 22 13 22 2 0 -13 -53 -34 -117z m-351 -140 c17 -44 28 -83
25 -86 -3 -3 -13 -3 -23 0 -13 3 -21 25 -32 94 -9 49 -12 86 -7 81 4 -4 21
-44 37 -89z m86 -40 c-3 -18 -10 -33 -16 -33 -10 0 -6 60 9 125 6 28 7 26 10
-15 2 -24 1 -59 -3 -77z m-179 2 c14 -24 24 -55 22 -67 -2 -17 -11 -5 -35 50
-35 79 -29 87 13 17z m257 -46 c-4 -4 -14 -5 -21 0 -11 6 -10 17 5 52 l18 44
3 -44 c2 -24 0 -47 -5 -52z m427 47 c0 -2 -42 -40 -93 -84 -73 -63 -99 -80
-115 -75 -12 3 -22 9 -22 13 0 12 65 58 148 106 79 45 82 46 82 40z m-245 -60
c-16 -24 -35 -35 -35 -19 0 10 43 54 48 49 2 -2 -4 -16 -13 -30z m-513 -20
c23 -18 35 -33 31 -42 -5 -12 -10 -11 -30 8 -30 28 -73 88 -53 72 8 -6 32 -23
52 -38z m-53 -81 c49 -24 61 -38 43 -49 -9 -5 -127 68 -137 85 -8 11 27 -2 94
-36z m706 -65 c-44 -20 -80 -26 -70 -10 7 11 60 28 90 28 13 0 5 -6 -20 -18z
m-736 -42 c29 -6 51 -17 51 -24 0 -17 -81 -8 -159 17 l-56 18 57 0 c31 1 79
-4 107 -11z m779 -23 c-3 -3 -29 -9 -57 -14 -40 -6 -51 -5 -51 5 0 10 16 14
57 14 31 0 54 -2 51 -5z m-9 -71 c2 -2 -17 -4 -42 -4 -26 0 -47 5 -47 10 0 9
78 4 89 -6z m-735 -24 c-12 -11 -129 -21 -118 -10 15 14 119 38 123 27 2 -5
-1 -12 -5 -17z m707 -76 c43 -21 78 -39 75 -41 -5 -6 -158 38 -174 50 -11 8
-11 12 0 18 17 11 8 14 99 -27z m-684 -8 c-8 -17 -35 -32 -97 -55 -96 -35
-115 -39 -80 -14 28 20 171 93 181 93 4 0 2 -11 -4 -24z m627 -56 c22 -17 37
-30 34 -30 -18 0 -98 41 -98 50 0 18 24 10 64 -20z m-609 -47 c-15 -13 -30
-22 -33 -18 -9 9 40 55 51 48 6 -4 -2 -16 -18 -30z m599 -65 c53 -56 94 -103
92 -106 -14 -13 -240 184 -230 200 15 23 50 -1 138 -94z m-489 14 c3 -8 -40
-64 -101 -133 -59 -65 -108 -119 -109 -119 -5 0 94 178 132 237 30 48 35 52
53 41 11 -7 22 -19 25 -26z m368 -38 c16 -31 27 -58 25 -59 -7 -7 -89 96 -83
105 14 22 32 7 58 -46z m-273 16 c0 -3 -15 -41 -32 -85 -27 -65 -34 -75 -36
-53 -2 15 5 54 14 87 14 45 22 59 36 58 10 -1 18 -4 18 -7z m184 -52 c23 -81
48 -199 44 -204 -7 -7 -89 236 -83 246 13 21 25 8 39 -42z m-98 -53 c-3 -49
-10 -103 -14 -120 l-9 -30 -6 40 c-4 22 -7 77 -7 122 0 77 1 82 21 80 21 -1
22 -5 15 -92z"/>
<path d="M10683 2993 c-23 -9 -53 -131 -53 -212 0 -66 28 -212 55 -286 4 -11
-9 2 -29 30 -127 175 -302 283 -386 240 l-32 -17 4 -74 c3 -60 1 -73 -10 -69
-8 3 -31 8 -52 11 -90 14 -119 -19 -100 -112 23 -111 106 -242 223 -350 34
-32 53 -54 42 -50 -172 72 -320 100 -412 77 -63 -16 -91 -43 -99 -96 -8 -55
10 -90 77 -148 l52 -46 -29 -6 c-111 -23 -154 -49 -154 -95 0 -33 39 -84 82
-106 l30 -16 -51 -23 c-28 -14 -67 -36 -87 -51 -29 -22 -34 -33 -32 -58 2 -24
12 -35 45 -54 23 -12 65 -25 92 -29 28 -3 51 -9 51 -13 0 -3 -20 -21 -45 -40
-89 -67 -118 -144 -67 -178 20 -13 55 -18 160 -20 l133 -4 -40 -30 c-75 -55
-159 -197 -146 -248 9 -34 21 -40 87 -40 l57 0 -14 -41 c-20 -55 -19 -72 5
-94 42 -38 196 5 328 93 35 23 65 42 67 42 2 0 -21 -35 -52 -78 -58 -81 -106
-168 -117 -214 -9 -39 25 -68 78 -68 48 0 140 41 207 92 l46 36 -5 -107 c-7
-161 21 -231 94 -231 25 0 104 81 144 150 22 36 56 103 75 150 57 134 56 133
50 45 -9 -145 23 -319 69 -368 19 -21 35 -27 65 -27 56 0 105 45 146 133 l32
68 39 -78 c21 -42 52 -86 67 -97 28 -21 28 -21 65 -1 64 35 102 138 102 279
l0 58 45 -60 c45 -60 118 -117 163 -129 36 -9 99 38 111 84 23 81 6 195 -44
293 -32 63 -31 70 3 38 117 -110 340 -193 382 -143 17 20 -10 105 -54 172 -19
29 -37 56 -40 62 -4 5 11 5 37 -1 23 -5 68 -10 101 -10 50 0 62 4 82 26 30 32
30 35 -2 99 -32 62 -144 176 -234 236 -36 23 -56 40 -45 37 59 -16 206 -26
271 -17 97 12 131 31 144 81 9 33 8 47 -6 75 -17 37 -71 90 -110 107 -27 13
-32 28 -8 28 27 0 134 62 160 93 29 34 27 82 -3 105 -69 52 -207 85 -332 80
-45 -2 -81 -2 -81 -1 0 2 24 15 53 29 134 68 237 161 237 213 0 75 -71 129
-172 132 -32 1 -58 5 -58 9 0 4 9 15 21 26 23 21 59 86 59 107 0 22 -45 58
-85 67 -64 14 -156 -7 -293 -67 -7 -3 5 31 27 76 69 142 76 269 17 301 -21 11
-32 9 -82 -14 -32 -15 -77 -42 -100 -61 -42 -35 -61 -44 -49 -25 15 24 6 153
-15 216 -21 62 -42 84 -79 84 -15 0 -129 -124 -163 -176 -18 -29 -36 -53 -39
-54 -3 0 -9 31 -12 69 -9 105 -48 171 -100 171 -67 0 -132 -111 -167 -284
l-16 -81 -28 70 c-61 155 -163 285 -223 285 -16 0 -37 7 -47 15 -19 15 -59 18
-83 8z m224 -914 c26 -37 93 -156 93 -164 0 -2 -7 -5 -15 -9 -22 -8 -69 67
-131 211 -30 69 -54 128 -54 131 0 4 17 -23 38 -59 22 -36 52 -86 69 -110z
m339 24 c-2 -16 -8 -58 -11 -95 -6 -59 -9 -68 -27 -68 -17 0 -19 4 -13 33 21
93 67 210 51 130z m-101 -109 c6 -46 5 -48 -9 -30 -10 13 -16 39 -15 70 0 60
13 38 24 -40z m174 -19 c-15 -43 -26 -62 -33 -55 -6 6 0 30 19 70 16 33 31 58
33 55 2 -2 -6 -34 -19 -70z m-239 -30 c0 -20 -21 -30 -31 -14 -5 8 -9 32 -9
54 l0 40 20 -33 c11 -18 20 -39 20 -47z m342 -12 c-30 -42 -62 -69 -62 -52 0
14 71 91 78 84 2 -2 -5 -16 -16 -32z m-708 -32 c47 -22 102 -51 122 -64 35
-24 35 -26 15 -37 -25 -13 -20 -15 -131 63 -131 93 -132 95 -6 38z m195 -8 c1
-1 0 -7 -4 -14 -6 -8 -13 -5 -26 12 -26 33 -24 46 4 23 12 -10 24 -20 26 -21z
m586 -38 c-50 -45 -81 -62 -93 -51 -3 4 1 13 9 21 14 14 119 75 129 74 3 0
-17 -20 -45 -44z m164 -79 c-10 -10 -118 -49 -167 -61 -46 -11 -53 -11 -50 3
3 17 65 38 148 51 75 12 74 12 69 7z m-856 -53 c9 -2 17 -9 17 -15 0 -5 -6 -8
-14 -5 -8 3 -33 11 -55 17 -23 6 -41 13 -41 16 0 5 57 -3 93 -13z m21 -68 c4
-12 -5 -15 -49 -15 -30 0 -55 4 -55 9 0 9 21 14 81 19 9 1 19 -5 23 -13z m721
-20 l50 -13 -69 1 c-46 1 -71 6 -74 15 -5 15 27 14 93 -3z m-725 -45 c0 -5
-19 -10 -42 -9 -37 1 -39 2 -18 9 36 12 60 12 60 0z m754 -78 c43 -20 74 -38
70 -39 -5 -2 -47 7 -93 20 -60 16 -88 29 -99 46 -15 22 -14 22 14 16 16 -4 64
-23 108 -43z m-704 -2 c0 -12 -7 -16 -101 -50 -96 -36 -96 -32 3 26 64 38 98
46 98 24z m587 -62 c32 -30 29 -41 -7 -23 -16 9 -30 22 -30 30 0 21 10 19 37
-7z m-567 2 c0 -9 -79 -60 -93 -60 -4 0 10 16 31 35 36 34 62 44 62 25z m85
-30 c8 -13 -88 -123 -163 -187 -65 -56 -63 -50 32 75 39 52 75 100 81 108 12
16 41 19 50 4z m422 -32 c18 -20 143 -198 168 -239 9 -14 -172 150 -212 193
-21 22 -22 26 -7 46 19 28 25 27 51 0z m-367 -38 c0 -12 -72 -111 -77 -106 -2
2 6 28 18 60 16 40 27 56 40 56 11 0 19 -5 19 -10z m267 -47 c25 -65 38 -113
30 -113 -3 0 -25 34 -48 76 -33 61 -39 78 -28 85 22 14 23 12 46 -48z m-204
21 c12 -4 9 -26 -18 -135 -18 -72 -36 -134 -40 -137 -4 -4 -5 2 -2 13 3 11 8
47 12 80 8 74 26 185 30 185 2 0 10 -3 18 -6z m113 -100 c9 -116 -8 -158 -26
-69 -25 122 -28 164 -11 168 26 6 31 -5 37 -99z"/>
<path d="M4691 2971 c-23 -20 -41 -72 -41 -119 l0 -34 -60 55 c-67 62 -104 75
-167 58 -46 -13 -60 -35 -69 -114 -5 -45 10 -165 32 -257 5 -22 3 -21 -22 10
-83 106 -210 202 -291 220 -40 9 -80 -6 -87 -35 -11 -41 -5 -114 14 -170 11
-32 20 -59 20 -60 0 -2 -17 3 -37 11 -21 7 -66 13 -101 14 -59 0 -65 -2 -93
-32 -61 -67 -32 -138 116 -285 57 -57 95 -99 86 -93 -45 24 -227 52 -306 47
-112 -7 -143 -20 -151 -63 -8 -44 20 -90 87 -141 l50 -38 -33 -7 c-18 -3 -58
-11 -88 -17 -74 -15 -120 -44 -120 -75 0 -55 156 -144 304 -174 l90 -18 -63
-17 c-161 -45 -271 -137 -271 -226 0 -79 60 -111 211 -111 l86 0 -77 -78 c-86
-87 -117 -147 -106 -206 4 -18 14 -40 22 -47 22 -18 100 -16 162 5 29 10 55
16 58 13 2 -2 -9 -33 -26 -68 -40 -85 -41 -151 -3 -194 22 -25 33 -30 67 -28
82 3 185 64 305 179 l80 76 -55 -108 c-68 -134 -104 -246 -104 -324 0 -61 11
-83 50 -95 37 -12 128 40 200 113 l66 68 12 -90 c14 -115 51 -193 100 -213 32
-13 35 -12 61 16 30 32 87 187 98 266 7 55 23 70 23 21 0 -95 52 -260 101
-318 46 -57 87 -50 124 23 9 16 19 29 23 29 4 0 18 -16 31 -36 53 -76 97 -67
143 32 26 55 32 82 36 159 l5 94 42 -57 c47 -64 123 -137 159 -153 19 -9 29
-7 50 6 32 21 46 69 46 158 l0 67 51 -40 c27 -22 68 -45 90 -51 34 -11 42 -10
59 6 24 22 25 57 5 140 -8 33 -14 63 -15 67 0 3 19 0 43 -7 122 -36 172 36
107 154 -17 30 -30 56 -30 58 0 3 19 2 42 -2 71 -12 134 -8 162 10 14 10 26
22 26 27 0 5 7 16 15 24 46 47 -25 172 -150 264 -28 21 -83 55 -123 75 -40 21
-71 39 -70 40 2 1 46 -2 98 -7 217 -20 439 48 448 138 2 25 -4 37 -32 62 -19
17 -43 35 -53 42 -13 8 -15 13 -5 17 7 3 32 20 55 37 38 30 42 36 39 72 -3 47
-22 65 -112 108 -64 31 -67 31 -220 31 l-155 0 117 58 c131 64 214 134 258
220 23 44 24 49 10 75 -9 15 -30 32 -47 37 -17 6 -41 19 -53 30 -44 39 -180
32 -340 -19 -41 -13 -77 -22 -79 -20 -2 2 17 27 43 56 61 70 115 175 123 238
5 44 3 54 -17 75 -13 14 -33 25 -45 25 -37 0 -105 -28 -156 -65 -27 -19 -51
-35 -53 -35 -2 0 5 28 16 63 12 40 20 95 21 156 2 94 2 94 -25 103 -47 16
-143 -26 -209 -92 l-57 -55 -6 71 c-3 40 -14 94 -24 120 -17 46 -20 49 -57 52
-69 5 -136 -67 -200 -213 l-33 -78 -12 44 c-19 72 -76 182 -113 217 -44 42
-99 57 -126 33z m-25 -944 c32 -62 36 -87 15 -87 -11 0 -92 178 -91 199 1 15
46 -51 76 -112z m121 0 c5 -49 4 -59 -8 -55 -10 3 -15 26 -16 84 -3 92 13 73
24 -29z m93 23 c0 -48 -3 -60 -16 -60 -12 0 -15 6 -11 23 3 12 9 39 12 60 4
20 9 37 11 37 2 0 4 -27 4 -60z m114 -11 c-17 -43 -49 -87 -58 -78 -2 2 12 32
31 67 40 71 52 76 27 11z m100 -36 c-69 -109 -79 -118 -86 -85 -4 17 96 142
114 142 5 0 -8 -26 -28 -57z m-501 -58 c40 -33 46 -45 21 -45 -16 0 -94 77
-94 93 0 9 15 -1 73 -48z m-140 -34 c26 -11 63 -31 82 -44 34 -23 35 -25 13
-30 -17 -5 -43 7 -101 45 -113 74 -112 80 6 29z m717 24 c-30 -36 -110 -78
-110 -57 0 7 105 71 119 72 2 0 -2 -7 -9 -15z m10 -92 c0 -11 -63 -53 -79 -53
-29 0 -3 34 34 46 22 6 41 12 43 13 1 1 2 -2 2 -6z m318 -38 c-3 -3 -62 -23
-132 -45 -137 -43 -231 -55 -231 -31 0 19 32 27 200 52 77 11 142 22 144 25 2
2 9 4 14 4 6 0 8 -2 5 -5z m-988 -34 c0 -19 -20 -22 -47 -7 l-28 15 38 1 c20
0 37 -4 37 -9z m-4 -87 c-3 -9 -6 -24 -6 -35 0 -18 -5 -19 -72 -13 -112 10
-266 31 -238 33 14 1 72 8 130 16 153 19 194 19 186 -1z m707 -35 c21 0 21 -1
2 -9 -32 -14 -55 -11 -55 6 0 11 5 14 16 10 9 -3 25 -6 37 -7z m-679 -84 c4
-10 -5 -17 -32 -24 -73 -20 -135 -32 -139 -27 -8 7 124 63 153 65 7 1 14 -6
18 -14z m761 -46 c53 -24 93 -45 88 -46 -4 -1 -59 10 -122 25 -98 23 -115 30
-123 51 -8 23 -7 23 26 18 19 -3 78 -25 131 -48z m-729 -33 c12 -13 11 -17
-11 -34 -13 -11 -62 -39 -107 -62 l-83 -43 30 33 c28 30 141 120 152 120 2 0
11 -6 19 -14z m589 -56 l30 -33 -52 34 c-28 19 -49 37 -46 41 6 11 34 -6 68
-42z m-66 -31 c13 -22 21 -42 19 -44 -2 -3 -21 16 -42 40 -30 37 -34 45 -18
45 11 0 27 -16 41 -41z m-462 15 c2 -5 -15 -31 -37 -58 -59 -71 -140 -159
-140 -151 0 4 35 56 77 116 70 100 91 120 100 93z m65 -80 c-11 -22 -27 -48
-35 -59 -14 -18 -14 -13 -1 45 19 79 23 86 41 67 13 -13 12 -19 -5 -53z m97
53 c11 -14 2 -79 -33 -226 -28 -119 -33 -82 -16 105 6 60 13 115 15 122 6 16
20 15 34 -1z m244 -32 c9 -19 15 -35 13 -35 -2 0 -16 16 -30 35 -18 23 -22 35
-13 35 7 0 21 -16 30 -35z m-81 -69 c10 -49 16 -91 14 -93 -4 -5 -66 162 -66
178 0 6 8 9 17 7 13 -2 22 -25 35 -92z m-85 8 c3 -64 -9 -52 -22 25 -6 34 -4
42 6 39 9 -3 15 -24 16 -64z"/>
<path d="M7811 2964 c-21 -26 -33 -63 -46 -137 l-6 -38 -45 50 c-59 66 -100
90 -141 84 -25 -4 -34 -12 -42 -37 -17 -54 -22 -128 -13 -203 4 -40 8 -73 8
-73 -1 0 -31 29 -68 64 -82 78 -183 125 -230 105 -27 -11 -28 -14 -28 -76 0
-58 -2 -64 -17 -58 -10 4 -36 9 -59 12 -59 8 -78 -14 -69 -81 11 -77 39 -144
101 -237 30 -46 58 -87 60 -91 3 -4 -30 17 -73 46 -90 62 -174 106 -221 117
-27 6 -37 3 -52 -14 -43 -46 -9 -167 75 -264 19 -23 35 -44 35 -47 0 -3 -37
-2 -82 1 -148 10 -248 -27 -248 -92 0 -62 141 -159 339 -234 l100 -37 -122 -1
c-130 0 -228 -18 -297 -53 -46 -23 -60 -45 -60 -94 0 -61 66 -116 194 -160 15
-5 4 -14 -50 -40 -61 -29 -124 -83 -124 -105 0 -4 7 -23 16 -41 27 -52 102
-81 231 -88 l105 -5 -34 -25 c-78 -60 -148 -153 -148 -197 0 -9 12 -32 26 -50
58 -76 199 -73 358 7 l59 30 -37 -48 c-59 -78 -95 -144 -116 -215 -33 -110
-25 -159 27 -159 29 0 129 50 170 84 17 14 33 26 36 26 3 0 1 -17 -4 -37 -11
-49 -11 -136 0 -165 5 -13 20 -29 34 -37 22 -12 30 -10 78 15 69 38 153 121
214 214 l50 75 0 -160 c0 -134 3 -166 18 -196 49 -99 178 -67 242 60 l18 35
27 -61 c15 -33 47 -80 70 -103 35 -35 46 -41 68 -35 36 9 50 22 73 67 34 67
51 165 47 273 l-3 101 50 -84 c60 -102 141 -187 185 -197 76 -17 140 62 143
175 1 33 5 60 8 60 3 0 14 -9 25 -21 21 -24 86 -59 108 -59 8 0 26 14 40 31
22 25 26 41 26 89 0 62 -38 200 -64 235 -26 34 -18 35 49 4 161 -73 281 -78
316 -13 11 21 9 31 -12 76 -13 29 -42 73 -63 98 l-39 45 94 6 c121 7 195 37
204 81 6 26 1 36 -39 77 -26 26 -78 67 -116 92 -38 24 -69 47 -69 50 -1 3 26
9 59 12 161 17 224 97 136 173 -52 45 -138 74 -288 99 l-38 6 112 56 c133 66
228 149 228 198 0 17 7 39 15 49 17 23 19 59 5 86 -14 27 -105 50 -195 50 -73
0 -176 -20 -275 -55 l-45 -15 35 27 c184 143 285 310 242 400 l-17 35 -71 -5
-72 -5 6 64 c4 57 2 67 -16 84 -64 60 -249 -27 -411 -190 l-80 -81 25 67 c64
171 71 340 16 413 -20 27 -81 46 -119 36 -29 -7 -80 -51 -114 -98 -31 -43 -34
-41 -43 25 -19 132 -117 160 -185 53 l-28 -44 -21 44 c-27 57 -89 125 -112
125 -10 0 -28 -12 -39 -26z m430 -960 c-44 -100 -73 -154 -83 -154 -4 0 -12 8
-17 18 -8 15 4 40 61 125 39 59 73 106 75 104 1 -2 -15 -44 -36 -93z m-381
-123 c14 -26 0 -60 -17 -39 -11 15 -73 162 -73 175 0 8 66 -93 90 -136z m212
60 c-4 -25 -13 -46 -20 -49 -7 -2 -10 2 -8 10 3 7 10 33 17 58 14 55 22 42 11
-19z m-68 4 c4 -25 4 -49 1 -55 -14 -23 -22 -7 -22 45 0 66 12 72 21 10z m-66
-17 c8 -31 8 -38 -4 -38 -10 0 -14 12 -14 42 0 48 4 47 18 -4z m-210 -127 c50
-40 63 -63 42 -76 -13 -8 -144 101 -199 166 l-45 52 75 -50 c40 -28 98 -69
127 -92z m857 121 c-17 -14 -238 -158 -279 -181 -29 -16 -42 -19 -50 -11 -18
18 34 54 189 130 143 70 156 76 140 62z m-775 -102 c0 -27 -28 -5 -53 43 l-29
52 41 -42 c23 -23 41 -47 41 -53z m443 10 c-12 -21 -20 -27 -28 -19 -7 7 -2
16 15 29 33 26 34 25 13 -10z m-543 -135 c0 -27 -21 -26 -64 5 -65 44 -64 51
4 29 34 -12 60 -27 60 -34z m626 -40 c-31 -19 -43 -22 -54 -13 -20 17 12 38
57 38 l36 -1 -39 -24z m-738 -16 c45 -6 82 -12 82 -14 0 -2 -3 -10 -6 -18 -4
-13 -17 -12 -92 5 -48 10 -109 25 -137 33 l-50 14 60 -5 c33 -3 97 -10 143
-15z m838 -38 c-7 -10 -86 -31 -118 -31 -53 1 35 32 110 39 7 0 11 -3 8 -8z
m-767 -95 c-5 -5 -59 -11 -121 -12 l-113 -3 45 15 c25 9 77 21 115 28 62 11
71 11 76 -3 4 -9 3 -20 -2 -25z m736 -3 l80 -18 -55 -3 c-76 -4 -134 9 -138
32 -3 13 1 17 15 13 10 -3 54 -13 98 -24z m-697 -76 c-1 -1 -14 -8 -28 -16
-14 -8 -52 -22 -85 -32 -60 -18 -60 -18 -35 1 14 11 50 33 80 49 47 25 56 28
63 15 5 -9 7 -16 5 -17z m662 -22 c25 -13 40 -24 34 -25 -13 0 -134 41 -134
46 0 13 61 0 100 -21z m-619 -55 l24 -20 -35 -30 c-19 -17 -82 -65 -140 -107
l-105 -76 64 74 c95 111 155 177 162 178 4 1 17 -8 30 -19z m544 -30 c21 -22
35 -40 29 -40 -18 0 -94 61 -88 71 9 15 19 10 59 -31z m-76 -66 c24 -36 41
-67 38 -70 -9 -9 -106 108 -100 122 9 23 17 16 62 -52z m-411 -3 c-13 -15 -25
-24 -26 -19 -6 14 28 59 39 53 5 -4 0 -18 -13 -34z m107 -13 c-9 -42 -64 -176
-75 -183 -8 -5 7 69 30 154 7 27 33 59 48 61 2 0 1 -15 -3 -32z m203 -56 c12
-48 22 -97 22 -107 -1 -25 -48 84 -65 148 -11 42 -10 47 5 47 13 0 22 -20 38
-88z m-113 16 c-9 -85 -25 -98 -25 -22 0 51 11 84 28 84 2 0 1 -28 -3 -62z"/>
</g>
</svg>
